<svg id="SvgjsSvg1001" width="288" height="288" xmlns="http://www.w3.org/2000/svg" version="1.1" xmlns:xlink="http://www.w3.org/1999/xlink" xmlns:svgjs="http://svgjs.com/svgjs"><defs id="SvgjsDefs1002"></defs><g id="SvgjsG1008"><svg xmlns="http://www.w3.org/2000/svg" width="288" height="288" fill="currentColor" viewBox="0 0 16 16"><path fill-rule="evenodd" d="M10 3h3v1h-1v9l-1 1H4l-1-1V4H2V3h3V2a1 1 0 0 1 1-1h3a1 1 0 0 1 1 1v1zM9 2H6v1h3V2zM4 13h7V4H4v9zm2-8H5v7h1V5zm1 0h1v7H7V5zm2 0h1v7H9V5z" clip-rule="evenodd" fill="#ffffff" class="color000 svgShape"></path></svg></g></svg>